# xmcd
#
# Track frame offsets:
#	150
#	14554
#	25451
#	37651
#	51810
#	64337
#	78514
#	90187
#	101899
#	113997
#	127082
#	137736
#	150935
#	161336
#	171363
#	179995
#	189701
#	202647
#	214171
#	225856
#	235799
#	248563
#	263794
#	272399
#	284403
#
# Disc length: 4003 seconds
#
# Revision: 0
# Processed by: cddbd v1.5.2PL0 Copyright (c) Steve Scherf et al.
# Submitted via: EasyCDDAExtractor 9.0.0.1
#
DISCID=530fa119
DTITLE=Various Artist - 75 Love Songs cd2
DYEAR=2006
DGENRE=Oldies
TTITLE0=Dean Martin - That's Amore
TTITLE1=Danny Kaye and Jane Wyman - No Two People
TTITLE2=Alma Cogan - Till I Waltz
TTITLE3=Frank Sinatra - Don't Worry
TTITLE4=The Moonglows - Secret Love
TTITLE5=Billie Holiday and Louis Armstrong - Dream a Little Dream of Me
TTITLE6=Doris Day and Guy Mitchell - A little Kiss Goodnight
TTITLE7=Dean Martin and Margaret Whiting - Don't Rock the Boat, Dear
TTITLE8=Perry Como - E Ko Ko Mo
TTITLE9=Eddie Fisher and Perry Como - May Be
TTITLE10=Frankie Laine and Jo Stafford - Hey, Good Lookin'
TTITLE11=Gary and Bing Crosby - Play a Simple Melody
TTITLE12=Jaye P. Morgan - The Longest Walk
TTITLE13=Jo Stafford and Gordon Mcrae - Say something sweet to your sweetheart
TTITLE14=Kitty Wells and Red Foley - No One But You
TTITLE15=Les Paul and Mary Ford - How High the Moon
TTITLE16=Rosemary Clooney and Bing Crosby - Baby, It's cold outside
TTITLE17=Alma Cogan and Frankie Vaughn - Do Do Do Do Do Do
TTITLE18=Red Foley and Kitty Wells - As Long as I Live
TTITLE19=Frankie Laine - I Believe
TTITLE20=Julie London - Cry Me a River
TTITLE21=Don Cornell and Hugo Winterhalter Orchestra - I Need You So
TTITLE22=Fats Domino - Please, Don't Leave Me
TTITLE23=Doris day and Johnny Ray - Let's Walk That Way
TTITLE24=Perry como - Some Enchanted Evening
EXTD=
EXTT0=
EXTT1=
EXTT2=
EXTT3=
EXTT4=
EXTT5=
EXTT6=
EXTT7=
EXTT8=
EXTT9=
EXTT10=
EXTT11=
EXTT12=
EXTT13=
EXTT14=
EXTT15=
EXTT16=
EXTT17=
EXTT18=
EXTT19=
EXTT20=
EXTT21=
EXTT22=
EXTT23=
EXTT24=
PLAYORDER=
